REM DIRINDEX 1\2,1\3,1\4,1\5
REM DIRNAME "folder01","folder02","folder03","folder04","folder05"
TITLE ""
FILE "1Q_t_1939-1948.mp3" MP3
  TRACK 01 AUDIO
    TITLE "3:cjc172_6822"
    INDEX 01 00:00:00
  TRACK 02 AUDIO
    TITLE "0:"
    INDEX 01 00:01:22
  TRACK 03 AUDIO
    TITLE "4:cjc172_6823"
    INDEX 01 00:01:29
  TRACK 04 AUDIO
    TITLE "0:"
    INDEX 01 00:02:50
  TRACK 05 AUDIO
    TITLE "5:cjc172_6824"
    INDEX 01 00:02:58
  TRACK 06 AUDIO
    TITLE "0:"
    INDEX 01 00:07:55
  TRACK 07 AUDIO
    TITLE "3:cjc172_6825"
    INDEX 01 00:08:27
  TRACK 08 AUDIO
    TITLE "0:"
    INDEX 01 00:09:45
  TRACK 09 AUDIO
    TITLE "4:cjc172_6826"
    INDEX 01 00:09:52
  TRACK 10 AUDIO
    TITLE "0:"
    INDEX 01 00:10:50
  TRACK 11 AUDIO
    TITLE "5:cjc172_6827"
    INDEX 01 00:10:60
  TRACK 12 AUDIO
    TITLE "0:"
    INDEX 01 00:14:46
  TRACK 13 AUDIO
    TITLE "3:cjc172_6828"
    INDEX 01 00:15:18
  TRACK 14 AUDIO
    TITLE "0:"
    INDEX 01 00:16:45
  TRACK 15 AUDIO
    TITLE "4:cjc172_6829"
    INDEX 01 00:16:54
  TRACK 16 AUDIO
    TITLE "0:"
    INDEX 01 00:18:43
  TRACK 17 AUDIO
    TITLE "5:cjc172_6830"
    INDEX 01 00:18:53
  TRACK 18 AUDIO
    TITLE "0:"
    INDEX 01 00:24:30
  TRACK 19 AUDIO
    TITLE "3:cjc172_6831"
    INDEX 01 00:25:02
  TRACK 20 AUDIO
    TITLE "0:"
    INDEX 01 00:26:27
  TRACK 21 AUDIO
    TITLE "4:cjc172_6832"
    INDEX 01 00:26:37
  TRACK 22 AUDIO
    TITLE "0:"
    INDEX 01 00:27:60
  TRACK 23 AUDIO
    TITLE "5:cjc172_6833"
    INDEX 01 00:27:68
  TRACK 24 AUDIO
    TITLE "0:"
    INDEX 01 00:32:63
  TRACK 25 AUDIO
    TITLE "3:cjc172_6834"
    INDEX 01 00:33:35
  TRACK 26 AUDIO
    TITLE "0:"
    INDEX 01 00:34:64
  TRACK 27 AUDIO
    TITLE "4:cjc172_6835"
    INDEX 01 00:35:01
  TRACK 28 AUDIO
    TITLE "0:"
    INDEX 01 00:38:52
  TRACK 29 AUDIO
    TITLE "5:cjc172_6836"
    INDEX 01 00:38:62
  TRACK 30 AUDIO
    TITLE "0:"
    INDEX 01 00:43:10
  TRACK 31 AUDIO
    TITLE "3:cjc172_6837"
    INDEX 01 00:43:59
  TRACK 32 AUDIO
    TITLE "0:"
    INDEX 01 00:44:72
  TRACK 33 AUDIO
    TITLE "4:cjc172_6838"
    INDEX 01 00:45:07
  TRACK 34 AUDIO
    TITLE "0:"
    INDEX 01 00:46:12
  TRACK 35 AUDIO
    TITLE "5:cjc172_6839"
    INDEX 01 00:46:22
  TRACK 36 AUDIO
    TITLE "0:"
    INDEX 01 00:50:16
  TRACK 37 AUDIO
    TITLE "3:cjc172_6840"
    INDEX 01 00:50:61
  TRACK 38 AUDIO
    TITLE "0:"
    INDEX 01 00:52:01
  TRACK 39 AUDIO
    TITLE "4:cjc172_6841"
    INDEX 01 00:52:15
  TRACK 40 AUDIO
    TITLE "0:"
    INDEX 01 00:53:67
  TRACK 41 AUDIO
    TITLE "5:cjc172_6842"
    INDEX 01 00:54:00
  TRACK 42 AUDIO
    TITLE "0:"
    INDEX 01 00:58:67
  TRACK 43 AUDIO
    TITLE "3:cjc172_6843"
    INDEX 01 00:59:37
  TRACK 44 AUDIO
    TITLE "0:"
    INDEX 01 01:00:46
  TRACK 45 AUDIO
    TITLE "4:cjc172_6844"
    INDEX 01 01:00:56
  TRACK 46 AUDIO
    TITLE "0:"
    INDEX 01 01:03:54
  TRACK 47 AUDIO
    TITLE "5:cjc172_6845"
    INDEX 01 01:03:64
  TRACK 48 AUDIO
    TITLE "0:"
    INDEX 01 01:07:40
  TRACK 49 AUDIO
    TITLE "3:cjc172_6846"
    INDEX 01 01:08:14
  TRACK 50 AUDIO
    TITLE "0:"
    INDEX 01 01:09:23
  TRACK 51 AUDIO
    TITLE "4:cjc172_6847"
    INDEX 01 01:09:35
  TRACK 52 AUDIO
    TITLE "0:"
    INDEX 01 01:11:30
  TRACK 53 AUDIO
    TITLE "5:cjc172_6848"
    INDEX 01 01:11:38
  TRACK 54 AUDIO
    TITLE "0:"
    INDEX 01 01:15:55
  TRACK 55 AUDIO
    TITLE "3:cjc172_6849"
    INDEX 01 01:16:29
  TRACK 56 AUDIO
    TITLE "0:"
    INDEX 01 01:17:38
  TRACK 57 AUDIO
    TITLE "4:cjc172_6850"
    INDEX 01 01:17:46
  TRACK 58 AUDIO
    TITLE "0:"
    INDEX 01 01:18:46
  TRACK 59 AUDIO
    TITLE "5:cjc172_6851"
    INDEX 01 01:18:55
  TRACK 60 AUDIO
    TITLE "0:"
    INDEX 01 01:24:31
